<svg width="360" height="248" viewBox="0 0 360 248" fill="none" xmlns="http://www.w3.org/2000/svg">
    <rect width="360" height="248" fill="white"/>
    <path opacity="0.3" d="M90.5767 120.1C81.5266 98.879 81.9712 75.8783 96.858 53.8613C95.5078 87.7675 101.241 114.913 114.745 136.963C127.588 157.933 147.445 174.271 174.864 187.437L170.14 196.622L170.081 196.736L170.14 196.85L170.772 198.078C156.965 203.124 141.696 206.762 128.015 205.8C113.527 204.782 100.833 198.61 93.5099 183.479C119.156 195.12 141.785 198.779 165.486 193.951L165.43 193.456C147.504 193.908 125.197 192.396 107.176 185.282C98.1676 181.726 90.2429 176.775 84.4696 169.981C78.8219 163.335 75.2231 154.914 74.6909 144.281C99.1916 171.484 124.156 185.608 156.763 188.894L156.865 188.408C135.494 181.527 110.227 170.657 92.1512 155.025C74.221 139.519 63.3922 119.355 70.41 93.743C78.6879 112.634 85.9712 127.452 96.3988 140.457C106.932 153.594 120.662 164.868 141.84 176.634L142.212 176.84V176.415V176.368V176.23L142.096 176.157C118.603 161.216 99.7306 141.565 90.5767 120.1ZM170.644 196.736L175.315 187.653C176.83 188.376 178.368 189.09 179.928 189.794L180.031 189.84L180.134 189.794C181.688 189.093 183.218 188.382 184.727 187.662L189.401 196.736L188.792 197.918C187.913 197.595 187.041 197.265 186.175 196.931L185.966 197.384C186.775 197.823 187.588 198.25 188.408 198.665L180.015 214.956L171.628 198.649C172.435 198.24 173.237 197.818 174.035 197.384L173.825 196.931C172.972 197.261 172.111 197.585 171.245 197.905L170.644 196.736ZM175.544 187.208L180.015 178.516L184.498 187.217C183.03 187.918 181.542 188.609 180.031 189.292C178.513 188.606 177.018 187.912 175.544 187.208ZM189.905 196.621L185.178 187.446C212.6 174.279 232.459 157.938 245.305 136.963C258.81 114.913 264.547 87.7671 263.204 53.8606C278.099 75.8778 278.543 98.8748 269.489 120.094C260.331 141.557 241.451 161.208 217.95 176.157L217.835 176.23V176.368V176.415V176.84L218.206 176.634C239.384 164.868 253.115 153.594 263.65 140.457C274.063 127.472 281.344 112.679 289.614 93.8295C296.583 119.401 285.759 139.536 267.849 155.025C249.773 170.657 224.506 181.527 203.136 188.408L203.237 188.894C235.845 185.608 260.809 171.469 285.309 144.281C284.777 154.914 281.178 163.335 275.531 169.981C269.757 176.775 261.833 181.726 252.824 185.282C234.803 192.396 212.496 193.908 194.57 193.456L194.514 193.951C218.215 198.779 240.844 195.12 266.49 183.479C259.168 198.61 246.473 204.782 231.986 205.8C218.316 206.761 203.062 203.13 189.265 198.092L189.905 196.85L189.964 196.736L189.905 196.621ZM180.237 215.617L188.854 198.889C203.86 206.385 220.626 209.781 240.606 209.942C232.703 216.555 224.285 218.921 215.811 218.388C207.145 217.842 198.406 214.262 190.094 209.056L189.791 209.451C193.613 213.024 197.994 216.359 202.974 219.555C194.895 220.611 188.267 217.27 183.347 212.125L183.023 211.787L182.922 212.244C182.53 214.013 182.063 215.597 181.54 216.781C181.278 217.373 181.006 217.857 180.728 218.211C180.474 218.535 180.23 218.733 180 218.823C179.77 218.733 179.526 218.535 179.272 218.211C178.994 217.857 178.722 217.373 178.46 216.781C177.937 215.597 177.47 214.013 177.078 212.244L176.977 211.787L176.653 212.125C171.734 217.269 165.107 220.596 157.028 219.554C162.007 216.358 166.388 213.024 170.21 209.451L169.906 209.056C161.595 214.262 152.855 217.842 144.19 218.388C135.716 218.921 127.297 216.555 119.394 209.942C139.39 209.781 156.167 206.393 171.181 198.874L179.792 215.616L180.015 216.048L180.237 215.617Z" stroke="#D0D0D0" stroke-width="0.5"/>
    <path opacity="0.7" d="M97.7807 125.064C89.4687 105.774 89.8686 84.8695 103.516 64.8545C102.285 95.6853 107.559 120.375 119.972 140.434C131.783 159.52 150.04 174.39 175.248 186.373L170.915 194.71L170.855 194.826L170.915 194.941L171.484 196.035C158.794 200.622 144.764 203.928 132.193 203.053C118.892 202.128 107.239 196.526 100.504 182.803C124.071 193.382 144.871 196.705 166.656 192.313L166.6 191.818C150.116 192.229 129.604 190.853 113.034 184.379C104.752 181.143 97.4671 176.638 92.1606 170.458C86.9804 164.425 83.6757 156.784 83.1762 147.139C105.699 171.875 128.653 184.721 158.628 187.711L158.729 187.224C139.077 180.961 115.843 171.069 99.2227 156.843C82.7496 142.744 72.8004 124.417 79.2206 101.144C86.8243 118.314 93.5196 131.789 103.102 143.617C112.791 155.576 125.42 165.839 144.898 176.549L145.268 176.753V176.33V176.287V176.149L145.152 176.075C123.549 162.478 106.197 144.594 97.7807 125.064ZM171.419 194.826L175.7 186.587C177.088 187.242 178.497 187.889 179.927 188.528L180.028 188.573L180.13 188.528C181.554 187.892 182.957 187.248 184.338 186.595L188.623 194.826L188.077 195.875C187.274 195.582 186.476 195.284 185.685 194.982L185.478 195.436C186.215 195.832 186.957 196.217 187.703 196.591L180.014 211.364L172.329 196.577C173.065 196.208 173.796 195.827 174.523 195.436L174.315 194.982C173.535 195.28 172.749 195.574 171.958 195.862L171.419 194.826ZM175.931 186.143L180.014 178.287L184.107 186.151C182.767 186.784 181.408 187.409 180.028 188.026C178.643 187.406 177.277 186.778 175.931 186.143ZM189.126 194.71L184.791 186.381C210.001 174.397 228.261 159.524 240.074 140.434C252.487 120.375 257.765 95.6849 256.541 64.8539C270.196 84.869 270.596 105.77 262.28 125.058C253.861 144.587 236.501 162.47 214.891 176.075L214.774 176.149V176.287V176.33V176.753L215.145 176.549C234.623 165.839 247.252 155.576 256.943 143.617C266.512 131.807 273.205 118.355 280.801 101.223C287.177 124.459 277.232 142.76 260.777 156.843C244.157 171.069 220.923 180.961 201.271 187.224L201.372 187.711C231.348 184.721 254.301 171.862 276.824 147.138C276.325 156.784 273.02 164.425 267.84 170.458C262.533 176.638 255.248 181.143 246.966 184.379C230.396 190.853 209.884 192.229 193.4 191.818L193.344 192.313C215.129 196.705 235.928 193.382 259.496 182.803C252.762 196.526 241.108 202.128 227.807 203.053C215.247 203.927 201.232 200.628 188.551 196.047L189.126 194.941L189.186 194.826L189.126 194.71ZM180.235 212.021L188.151 196.814C201.935 203.625 217.333 206.715 235.676 206.867C228.426 212.853 220.705 214.994 212.934 214.51C204.969 214.013 196.935 210.757 189.293 206.019L188.991 206.415C192.494 209.656 196.506 212.681 201.064 215.58C193.669 216.517 187.6 213.482 183.092 208.816L182.769 208.482L182.668 208.935C182.307 210.544 181.878 211.985 181.398 213.06C181.158 213.598 180.908 214.036 180.655 214.357C180.425 214.647 180.205 214.824 180 214.905C179.795 214.824 179.575 214.647 179.346 214.357C179.092 214.036 178.842 213.598 178.602 213.06C178.122 211.985 177.693 210.544 177.332 208.935L177.231 208.482L176.909 208.816C172.401 213.482 166.333 216.503 158.937 215.579C163.495 212.68 167.507 209.656 171.009 206.415L170.708 206.019C163.066 210.757 155.032 214.013 147.066 214.51C139.295 214.994 131.574 212.853 124.325 206.867C142.682 206.715 158.09 203.632 171.882 196.801L179.792 212.021L180.013 212.448L180.235 212.021Z" stroke="#D0D0D0" stroke-width="0.5"/>
    <path d="M92.9035 110.445C106.219 140.496 116.147 157.369 149.773 175.811V175.773C112.392 152.305 89.6513 114.004 114.159 79C111.803 132.781 132.31 164.873 180.025 186.127C227.727 164.873 248.234 132.781 245.89 79C270.41 114.004 247.657 152.292 210.264 175.773V175.811C243.89 157.369 253.818 140.496 267.146 110.445C278.878 151.26 232.428 174.604 198.445 185.405C224.463 182.816 244.344 171.63 263.906 150.065C262.605 184.633 220.081 190.084 191.573 189.374C210.509 193.182 228.586 190.245 249.142 180.95C237.508 205.551 208.03 200.922 184.835 192.087C197.439 198.844 211.577 201.843 228.697 201.917C215.823 212.88 201.157 209.769 187.916 201.581C191.057 204.481 194.678 207.181 198.813 209.769C192.076 210.827 186.566 208.139 182.516 203.958C181.89 206.745 181.019 208.985 180 209.284C178.981 208.985 178.11 206.745 177.484 203.958C173.434 208.139 167.924 210.815 161.187 209.769C165.322 207.181 168.943 204.481 172.085 201.581C158.843 209.769 144.177 212.88 131.303 201.917C148.423 201.843 162.561 198.856 175.165 192.087C151.97 200.922 122.492 205.551 110.858 180.95C131.414 190.245 149.491 193.182 168.427 189.374C139.918 190.084 97.3951 184.633 96.0942 150.065C115.656 171.642 135.538 182.816 161.555 185.405C127.573 174.604 81.122 151.26 92.8543 110.445H92.9035Z" fill="#D0D0D0"/>
    <path d="M180.012 177.03L187.694 191.751L180.012 206.472L172.342 191.751L180.012 177.03Z" fill="#D0D0D0"/>
    <g opacity="0.3">
        <path d="M126.01 131.674C121.548 122.339 119.129 113.22 118.013 105.49C120.257 98.3411 126.938 93.1624 134.822 93.1624H143.409C141.867 95.8276 140.814 98.7958 140.363 101.966H134.822C129.959 101.966 126.01 105.907 126.01 110.77V131.674Z" fill="#D0D0D0"/>
        <path d="M180.5 28C165.282 28 150.127 32.686 121.66 41.5024L118 42.6391V92.5309C118 93.3141 118 94.1096 118.038 94.9307C120.332 92.0889 123.628 89.9795 126.123 88.7922V48.7272C153.637 40.2266 167.1 36.2353 180.5 36.2353C193.9 36.2353 207.375 40.2266 234.877 48.7272V88.7922C237.372 89.9795 240.668 92.0889 242.962 94.9307C242.987 94.1096 243 93.3141 243 92.5309V42.6391L239.34 41.5024C210.873 32.6987 195.718 28 180.5 28Z" fill="#D0D0D0"/>
        <path fill-rule="evenodd" clip-rule="evenodd" d="M188.824 63.2272C188.824 67.5974 185.301 71.1467 180.952 71.1467C176.602 71.1467 173.079 67.5974 173.079 63.2272C173.079 58.8569 176.602 55.3077 180.952 55.3077C185.301 55.3077 188.824 58.8569 188.824 63.2272ZM198.438 63.2272C198.438 72.9527 190.603 80.8346 180.952 80.8346C171.299 80.8346 163.465 72.9527 163.465 63.2272C163.465 53.5014 171.299 45.6198 180.952 45.6198C190.603 45.6198 198.438 53.5014 198.438 63.2272Z" fill="#D0D0D0"/>
        <path fill-rule="evenodd" clip-rule="evenodd" d="M151.231 72.9025C151.231 75.8201 148.886 78.1822 145.978 78.1822C143.07 78.1822 140.726 75.8201 140.726 72.9025C140.726 69.9847 143.07 67.6229 145.978 67.6229C148.886 67.6229 151.231 69.9847 151.231 72.9025ZM158.225 72.9025C158.225 79.7105 152.747 85.2303 145.978 85.2303C139.209 85.2303 133.732 79.7105 133.732 72.9025C133.732 66.0946 139.209 60.5748 145.978 60.5748C152.747 60.5748 158.225 66.0946 158.225 72.9025Z" fill="#D0D0D0"/>
        <path fill-rule="evenodd" clip-rule="evenodd" d="M215.937 78.1948C218.832 78.1948 221.189 75.8326 221.189 72.9151C221.189 69.9972 218.845 67.6354 215.937 67.6354C213.028 67.6354 210.685 69.9972 210.685 72.9151C210.685 75.8326 213.028 78.1948 215.937 78.1948ZM215.937 85.2428C222.693 85.2428 228.183 79.7231 228.183 72.9151C228.183 66.1071 222.706 60.5873 215.937 60.5873C209.168 60.5873 203.69 66.1071 203.69 72.9151C203.69 79.7231 209.168 85.2428 215.937 85.2428Z" fill="#D0D0D0"/>
        <path d="M214.094 105.49V160.283C211.149 162.96 207.927 165.55 204.404 168V105.49C204.404 101.107 200.857 97.558 196.482 97.558H164.769C160.394 97.558 156.847 101.107 156.847 105.49V167.722C153.324 165.259 150.102 162.657 147.157 159.954V105.49C147.157 95.7643 155.041 87.8701 164.769 87.8701H196.482C206.21 87.8701 214.094 95.7517 214.094 105.49Z" fill="#D0D0D0"/>
        <path d="M235.003 131.674C239.465 122.339 241.884 113.22 243 105.49C240.756 98.3411 234.075 93.1624 226.19 93.1624H217.604C219.146 95.8276 220.199 98.7958 220.65 101.966H226.19C231.054 101.966 235.003 105.907 235.003 110.77V131.674Z" fill="#D0D0D0"/>
    </g>
</svg>
