<svg xmlns="http://www.w3.org/2000/svg" width="676" height="335" viewBox="0 0 676 335" fill="none">
    <path d="M352.271 234.559C287.494 262.743 219.025 275.816 132.7 288.422C228.333 347.427 322.81 325.824 406.59 269.446C490.728 212.827 564.001 121.175 616.627 41.0603L617.51 41.5175C566.193 172.231 479.85 258.881 341.024 328.772C385.239 339.203 423.986 334.047 457.847 318.151C492.056 302.09 521.304 275.054 546.162 241.99C595.882 175.856 627.968 85.6981 647.024 11.3924L648.007 11.556C639.848 114.886 598.503 204.037 521.145 296.656C591.81 284.108 632.022 238.505 653.197 179.482C674.516 120.059 676.521 47.0617 670.818 -19.3863L671.805 -19.5348C687.995 55.2795 682.81 132.538 658.409 220.808C695.17 195.624 714.945 163.228 722.778 127.202C730.695 90.7938 726.422 50.6479 715.102 10.4579L716.03 10.0978C726.16 30.2592 734.621 52.531 741.786 77.2118C756.31 44.4735 750.564 12.6711 735.271 -13.9349L734.813 -14.7322L735.731 -14.6834C743.334 -14.2788 750.302 -14.3917 755.734 -15.2025C758.451 -15.608 760.764 -16.1854 762.574 -16.9491C764.075 -17.5829 765.197 -18.3309 765.925 -19.1858L648.011 -52.5464C558.463 55.4857 464.917 124.431 359.612 155.066C254.679 185.594 138.132 178.063 2.32352 133.361C74.0171 221.102 166.884 249.615 263.67 236.455C360.97 223.225 462.248 167.871 549.911 88.1627L550.117 87.9759L550.384 88.0515L550.576 88.1059L551.385 88.3349L550.797 88.9365C478.76 162.629 417.396 206.224 352.271 234.559Z" stroke="url(#paint0_linear_1330_17286)"/>
    <defs>
        <linearGradient id="paint0_linear_1330_17286" x1="17.6572" y1="221.608" x2="787.901" y2="129.198" gradientUnits="userSpaceOnUse">
            <stop stop-color="white" stop-opacity="0.1"/>
            <stop offset="1" stop-color="white" stop-opacity="0.02"/>
        </linearGradient>
    </defs>
</svg>