<svg xmlns="http://www.w3.org/2000/svg" width="197" height="194" viewBox="0 0 197 194" fill="none">
    <path d="M172.332 79.7033C172.332 94.6968 167.329 108.6 158.946 119.777C154.349 125.774 148.806 131.09 142.451 135.179C132.176 141.994 119.872 145.947 106.622 145.947C70.252 145.947 40.7773 116.233 40.7773 79.7033C40.7773 43.0375 70.252 13.4595 106.487 13.4595C119.737 13.4595 132.041 17.4123 142.316 24.0912C148.671 28.1803 154.214 33.4962 158.811 39.4936C167.329 50.8068 172.332 64.7099 172.332 79.7033Z" fill="#EAEEF9"/>
    <path d="M180.036 59.5307C182.064 57.6224 182.199 54.4875 180.307 52.4429C178.414 50.3983 175.304 50.262 173.141 52.1703C171.113 54.0785 170.977 57.2135 172.87 59.2581C174.763 61.1664 178.008 61.3027 180.036 59.5307Z" fill="#EAEEF9"/>
    <g filter="url(#filter0_d_768_13983)">
        <path d="M92.7559 60.4999L54.9793 86.7521C52.7942 88.2561 49.8168 87.7365 48.2872 85.5489L23.2121 49.3701C21.7098 47.1824 22.2288 44.2017 24.4139 42.6703L62.1905 16.4181C64.3757 14.9141 67.353 15.4337 68.8826 17.6214L93.9851 53.8001C95.4874 55.9878 94.9411 58.9959 92.7559 60.4999Z" fill="url(#paint0_linear_768_13983)"/>
    </g>
    <path d="M86.9104 56.5346L53.6955 79.6147C52.7668 80.271 51.483 80.0248 50.8274 79.0951L30.0954 49.1785C29.4399 48.2488 29.6857 46.9635 30.6144 46.3072L63.8293 23.2272C64.758 22.5709 66.0418 22.817 66.6974 23.7468L87.4294 53.6633C88.085 54.5931 87.8391 55.8783 86.9104 56.5346Z" fill="#EAEEF9"/>
    <path d="M63.1181 56.2888L50.9902 64.7114L52.274 53.6362L63.1181 56.2888Z" fill="#B0B7C4"/>
    <path d="M73.1417 49.3157L55.6875 61.4574L57.5449 45.5146L73.1417 49.3157Z" fill="#CED6E2"/>
    <path d="M47.4658 52.6518C49.0045 52.6518 50.2519 51.403 50.2519 49.8625C50.2519 48.3221 49.0045 47.0732 47.4658 47.0732C45.9271 47.0732 44.6797 48.3221 44.6797 49.8625C44.6797 51.403 45.9271 52.6518 47.4658 52.6518Z" fill="#B0B7C4"/>
    <g filter="url(#filter1_d_768_13983)">
        <path d="M138.507 82.8412L103.408 53.0888C101.386 51.366 101.141 48.3306 102.834 46.307L131.269 12.6987C132.99 10.6751 136.022 10.429 138.043 12.1245L173.143 41.8769C175.164 43.5997 175.41 46.6351 173.716 48.6587L145.281 82.267C143.561 84.2906 140.529 84.5367 138.507 82.8412Z" fill="url(#paint1_linear_768_13983)"/>
    </g>
    <path d="M140.829 76.1688L109.963 50.026C109.089 49.2877 108.98 48.0024 109.717 47.1274L133.208 19.3438C133.946 18.4687 135.229 18.3594 136.103 19.0977L166.969 45.2405C167.843 45.9788 167.953 47.2641 167.215 48.1392L143.724 75.9227C142.987 76.7978 141.703 76.9072 140.829 76.1688Z" fill="#EAEEF9"/>
    <path d="M134.902 53.061L123.648 43.5172L134.684 41.9038L134.902 53.061Z" fill="#B0B7C4"/>
    <path d="M144.245 60.9642L128.02 47.2092L143.89 44.9121L144.245 60.9642Z" fill="#CED6E2"/>
    <path d="M137.087 39.0874C138.626 39.0874 139.873 37.8386 139.873 36.2981C139.873 34.7576 138.626 33.5088 137.087 33.5088C135.548 33.5088 134.301 34.7576 134.301 36.2981C134.301 37.8386 135.548 39.0874 137.087 39.0874Z" fill="#B0B7C4"/>
    <g filter="url(#filter2_d_768_13983)">
        <path d="M142.47 140.268L101.169 160.504C98.7931 161.68 95.925 160.696 94.7505 158.289L75.4115 118.747C74.237 116.368 75.2203 113.496 77.624 112.32L118.924 92.0844C121.301 90.9086 124.169 91.893 125.343 94.2995L144.682 133.869C145.829 136.221 144.846 139.092 142.47 140.268Z" fill="url(#paint2_linear_768_13983)"/>
    </g>
    <path d="M137.28 135.483L100.951 153.285C99.9403 153.777 98.6838 153.367 98.1921 152.328L82.1856 119.622C81.6939 118.61 82.1036 117.352 83.1416 116.86L119.47 99.0579C120.481 98.5656 121.738 98.9758 122.229 100.015L138.236 132.721C138.727 133.733 138.318 134.963 137.28 135.483Z" fill="#EAEEF9"/>
    <path d="M113.789 131.627L100.541 138.135L103.491 127.361L113.789 131.627Z" fill="#B0B7C4"/>
    <path d="M124.769 126.24L105.676 135.619L109.937 120.114L124.769 126.24Z" fill="#CED6E2"/>
    <path d="M99.3115 125.693C100.85 125.693 102.098 124.444 102.098 122.904C102.098 121.363 100.85 120.114 99.3115 120.114C97.7728 120.114 96.5254 121.363 96.5254 122.904C96.5254 124.444 97.7728 125.693 99.3115 125.693Z" fill="#B0B7C4"/>
    <path d="M107.479 65.0119C111.326 65.0119 114.444 61.8899 114.444 58.0387C114.444 54.1875 111.326 51.0654 107.479 51.0654C103.632 51.0654 100.514 54.1875 100.514 58.0387C100.514 61.8899 103.632 65.0119 107.479 65.0119Z" fill="#8993A4"/>
    <path d="M89.5322 58.5848L87.9752 55.2759C87.8386 54.9478 87.7021 54.6196 87.5382 54.3188C85.7627 51.01 82.2664 48.7402 78.2511 48.7402C74.5363 48.7402 71.2858 50.6545 69.4011 53.5805L66.3418 57.6824L67.7895 58.0652C67.7349 58.4754 67.7075 58.913 67.7075 59.3231C67.7075 65.1478 72.433 69.8787 78.2511 69.8787C84.0692 69.8787 88.7947 65.1478 88.7947 59.3231C88.7947 59.1317 88.7947 58.9403 88.7673 58.7489L89.5322 58.5848Z" fill="#8993A4"/>
    <path d="M125.424 58.5858L126.981 55.3043C127.117 54.9761 127.254 54.6479 127.418 54.3471C129.193 51.0383 132.69 48.7686 136.705 48.7686C140.42 48.7686 143.67 50.6828 145.555 53.6088L148.614 57.6834L147.167 58.0662C147.221 58.4764 147.248 58.9139 147.248 59.3241C147.248 65.1488 142.523 69.8797 136.705 69.8797C130.887 69.8797 126.161 65.1488 126.161 59.3241C126.161 59.1327 126.161 58.9413 126.189 58.7499L125.424 58.5858Z" fill="#8993A4"/>
    <path d="M164.84 93.2597C164.84 97.2795 163.583 94.1621 163.583 94.1621L154.132 79.7781L126.08 88.0366L120.371 89.7047L107.506 76.9068L94.6406 89.7047L60.8793 79.7781L51.4284 94.1621C51.4284 94.1621 50.1719 97.2522 50.1719 93.2597C50.1719 84.0167 56.8094 70.7813 62.7367 60.9094C65.3863 56.4793 70.3576 54.1002 75.3835 53.7173C78.9891 53.4439 83.0864 54.0182 86.1729 55.9871C86.8285 56.3973 88.085 57.6552 88.9317 57.5184C93.548 56.8074 98.41 55.7683 102.016 54.9479C105.703 54.1002 109.527 54.1002 113.187 54.9753C116.738 55.7956 121.491 56.8348 126.08 57.5458C126.927 57.6825 128.183 56.452 128.839 56.0144C131.925 54.0182 136.023 53.4439 139.628 53.7447C144.654 54.1275 149.626 56.4793 152.275 60.9367C158.202 70.8086 164.84 84.0167 164.84 93.2597Z" fill="url(#paint3_linear_768_13983)"/>
    <path opacity="0.2" d="M145.585 75.376L126.055 88.0645L120.346 89.7326L107.48 76.9347V63.5898C112.479 63.5898 120.81 67.2816 124.115 70.5631C128.65 66.8167 135.478 63.125 145.585 65.0118C155.691 66.8714 145.585 75.376 145.585 75.376Z" fill="url(#paint4_linear_768_13983)"/>
    <path opacity="0.2" d="M69.3746 75.376L88.9048 88.0645L94.6136 89.7326L107.479 76.9347V63.5898C102.48 63.5898 94.1492 67.2816 90.8441 70.5631C86.3098 66.8167 79.4811 63.125 69.3746 65.0118C59.2681 66.8714 69.3746 75.376 69.3746 75.376Z" fill="url(#paint5_linear_768_13983)"/>
    <path d="M107.479 80.216C111.326 80.216 114.444 77.094 114.444 73.2428C114.444 69.3916 111.326 66.2695 107.479 66.2695C103.632 66.2695 100.514 69.3916 100.514 73.2428C100.514 77.094 103.632 80.216 107.479 80.216Z" fill="#8993A4"/>
    <path d="M73.4441 118.61C86.3272 118.61 96.7711 108.155 96.7711 95.2568C96.7711 82.359 86.3272 71.9033 73.4441 71.9033C60.561 71.9033 50.1172 82.359 50.1172 95.2568C50.1172 108.155 60.561 118.61 73.4441 118.61Z" fill="#C8CEDB"/>
    <path d="M73.4445 112.676C83.0541 112.676 90.8441 104.877 90.8441 95.2563C90.8441 85.6359 83.0541 77.8369 73.4445 77.8369C63.835 77.8369 56.0449 85.6359 56.0449 95.2563C56.0449 104.877 63.835 112.676 73.4445 112.676Z" fill="#A7B0BF"/>
    <path d="M73.4441 106.058C81.2283 106.058 87.5386 99.7405 87.5386 91.9475C87.5386 84.1544 81.2283 77.8369 73.4441 77.8369C65.6599 77.8369 59.3496 84.1544 59.3496 91.9475C59.3496 99.7405 65.6599 106.058 73.4441 106.058Z" fill="#8993A4"/>
    <path opacity="0.4" d="M64.157 93.0415C63.5561 93.0415 63.0645 92.5492 63.0645 91.9476C63.0645 86.205 67.7353 81.5562 73.4441 81.5562C74.045 81.5562 74.5367 82.0484 74.5367 82.65C74.5367 83.2516 74.045 83.7438 73.4441 83.7438C68.9098 83.7438 65.2496 87.4355 65.2496 91.9476C65.2496 92.5492 64.758 93.0415 64.157 93.0415Z" fill="white"/>
    <path d="M141.512 118.61C154.396 118.61 164.839 108.155 164.839 95.2568C164.839 82.359 154.396 71.9033 141.512 71.9033C128.629 71.9033 118.186 82.359 118.186 95.2568C118.186 108.155 128.629 118.61 141.512 118.61Z" fill="#C8CEDB"/>
    <path d="M141.513 112.676C151.122 112.676 158.912 104.877 158.912 95.2563C158.912 85.6359 151.122 77.8369 141.513 77.8369C131.903 77.8369 124.113 85.6359 124.113 95.2563C124.113 104.877 131.903 112.676 141.513 112.676Z" fill="#A7B0BF"/>
    <path d="M141.512 106.058C149.297 106.058 155.607 99.7405 155.607 91.9475C155.607 84.1544 149.297 77.8369 141.512 77.8369C133.728 77.8369 127.418 84.1544 127.418 91.9475C127.418 99.7405 133.728 106.058 141.512 106.058Z" fill="#8993A4"/>
    <path opacity="0.4" d="M142.115 82.65C142.115 82.0484 141.623 81.5562 141.022 81.5562C135.286 81.5562 130.643 86.2323 130.643 91.9476C130.643 92.5492 131.134 93.0415 131.735 93.0415C132.336 93.0415 132.828 92.5492 132.828 91.9476C132.828 87.4082 136.515 83.7438 141.022 83.7438C141.623 83.7438 142.115 83.2516 142.115 82.65Z" fill="white"/>
    <defs>
        <filter id="filter0_d_768_13983" x="0.355469" y="4.56055" width="116.477" height="116.049" filterUnits="userSpaceOnUse" color-interpolation-filters="sRGB">
            <feFlood flood-opacity="0" result="BackgroundImageFix"/>
            <feColorMatrix in="SourceAlpha" type="matrix" values="0 0 0 0 0 0 0 0 0 0 0 0 0 0 0 0 0 0 127 0" result="hardAlpha"/>
            <feOffset dy="11"/>
            <feGaussianBlur stdDeviation="11"/>
            <feColorMatrix type="matrix" values="0 0 0 0 0.397708 0 0 0 0 0.47749 0 0 0 0 0.575 0 0 0 0.27 0"/>
            <feBlend mode="normal" in2="BackgroundImageFix" result="effect1_dropShadow_768_13983"/>
            <feBlend mode="normal" in="SourceGraphic" in2="effect1_dropShadow_768_13983" result="shape"/>
        </filter>
        <filter id="filter1_d_768_13983" x="79.7109" y="0" width="117.129" height="116.966" filterUnits="userSpaceOnUse" color-interpolation-filters="sRGB">
            <feFlood flood-opacity="0" result="BackgroundImageFix"/>
            <feColorMatrix in="SourceAlpha" type="matrix" values="0 0 0 0 0 0 0 0 0 0 0 0 0 0 0 0 0 0 127 0" result="hardAlpha"/>
            <feOffset dy="11"/>
            <feGaussianBlur stdDeviation="11"/>
            <feColorMatrix type="matrix" values="0 0 0 0 0.397708 0 0 0 0 0.47749 0 0 0 0 0.575 0 0 0 0.27 0"/>
            <feBlend mode="normal" in2="BackgroundImageFix" result="effect1_dropShadow_768_13983"/>
            <feBlend mode="normal" in="SourceGraphic" in2="effect1_dropShadow_768_13983" result="shape"/>
        </filter>
        <filter id="filter2_d_768_13983" x="52.916" y="80.5884" width="114.244" height="113.412" filterUnits="userSpaceOnUse" color-interpolation-filters="sRGB">
            <feFlood flood-opacity="0" result="BackgroundImageFix"/>
            <feColorMatrix in="SourceAlpha" type="matrix" values="0 0 0 0 0 0 0 0 0 0 0 0 0 0 0 0 0 0 127 0" result="hardAlpha"/>
            <feOffset dy="11"/>
            <feGaussianBlur stdDeviation="11"/>
            <feColorMatrix type="matrix" values="0 0 0 0 0.397708 0 0 0 0 0.47749 0 0 0 0 0.575 0 0 0 0.27 0"/>
            <feBlend mode="normal" in2="BackgroundImageFix" result="effect1_dropShadow_768_13983"/>
            <feBlend mode="normal" in="SourceGraphic" in2="effect1_dropShadow_768_13983" result="shape"/>
        </filter>
        <linearGradient id="paint0_linear_768_13983" x1="58.5705" y1="13.894" x2="58.5705" y2="88.3864" gradientUnits="userSpaceOnUse">
            <stop stop-color="#FDFEFF"/>
            <stop offset="0.9964" stop-color="#ECF0F5"/>
        </linearGradient>
        <linearGradient id="paint1_linear_768_13983" x1="138.251" y1="9.31223" x2="138.251" y2="84.7523" gradientUnits="userSpaceOnUse">
            <stop stop-color="#FDFEFF"/>
            <stop offset="0.9964" stop-color="#ECF0F5"/>
        </linearGradient>
        <linearGradient id="paint2_linear_768_13983" x1="110.016" y1="89.9828" x2="110.016" y2="161.749" gradientUnits="userSpaceOnUse">
            <stop stop-color="#FDFEFF"/>
            <stop offset="0.9964" stop-color="#ECF0F5"/>
        </linearGradient>
        <linearGradient id="paint3_linear_768_13983" x1="107.506" y1="56.7162" x2="107.506" y2="72.4643" gradientUnits="userSpaceOnUse">
            <stop stop-color="#B0BACC"/>
            <stop offset="1" stop-color="#969EAE"/>
        </linearGradient>
        <linearGradient id="paint4_linear_768_13983" x1="141.244" y1="72.1415" x2="109.49" y2="78.6052" gradientUnits="userSpaceOnUse">
            <stop offset="0.00289017" stop-color="white" stop-opacity="0"/>
            <stop offset="1" stop-color="white"/>
        </linearGradient>
        <linearGradient id="paint5_linear_768_13983" x1="68.7704" y1="72.1415" x2="105.535" y2="66.6698" gradientUnits="userSpaceOnUse">
            <stop offset="0.00289017" stop-color="white" stop-opacity="0"/>
            <stop offset="1" stop-color="white"/>
        </linearGradient>
    </defs>
</svg>