<svg width="95" height="24" viewBox="0 0 95 24" fill="none" xmlns="http://www.w3.org/2000/svg">
<g id="sharh-main-raster">
<g id="sharh-icon">
<rect id="Rectangle 22428" width="24.1714" height="24" rx="4.85714" fill="#4489F7"/>
<g id="Group 427318676">
<g id="Group 36554">
<path id="Subtract" fill-rule="evenodd" clip-rule="evenodd" d="M7.81953 18.3019C11.3826 17.8447 13.543 16.7737 14.3159 16.2019C14.5079 16.106 14.6959 15.9968 14.8787 15.874C17.139 14.3566 17.756 11.3419 16.2569 9.14052C14.7578 6.93911 11.7103 6.38461 9.45004 7.90201C9.37061 7.95534 9.2932 8.01052 9.21785 8.06744C9.16081 8.0971 9.10557 8.13134 9.05228 8.17034C6.82004 9.80405 5.22566 12.316 4.60175 13.5672C3.89925 10.4535 5.15358 7.06864 8.013 5.14898C11.7274 2.65534 16.7437 3.57842 19.2172 7.21075C21.6907 10.8431 20.6848 15.8092 16.9704 18.3028C14.1066 20.2253 10.469 20.117 7.81953 18.3019Z" fill="white"/>
<path id="Union" fill-rule="evenodd" clip-rule="evenodd" d="M9.71571 9.47312C9.76814 9.43348 9.822 9.39507 9.87728 9.35796C11.4502 8.30199 13.576 8.69518 14.6253 10.2362C15.6747 11.7772 15.2503 13.8824 13.6774 14.9384C13.5501 15.0238 13.4192 15.0998 13.2856 15.1664C12.7435 15.5676 11.2198 16.3205 8.70123 16.6288L10.8251 14.6524L4.96521 16.809L9.36848 11.9182L6.43287 13.4644C6.79995 12.6622 7.94738 10.7552 9.60048 9.5447C9.63756 9.51755 9.676 9.49373 9.71571 9.47312Z" fill="white"/>
</g>
</g>
</g>
<g id="sharh">
<path d="M33.6599 21.0471C32.8265 21.0471 32.0185 20.9627 31.2361 20.7938C30.4707 20.6249 29.8158 20.3969 29.2715 20.1098L29.6032 17.0698C30.1815 17.4245 30.8194 17.7116 31.5167 17.9311C32.2141 18.1507 32.869 18.2605 33.4813 18.2605C34.0597 18.2605 34.5444 18.1591 34.9357 17.9565C35.3269 17.7369 35.5225 17.4245 35.5225 17.0191C35.5225 16.6983 35.3864 16.4534 35.1143 16.2845C34.8421 16.0987 34.3233 15.8707 33.5579 15.6005L32.869 15.3472C32.1376 15.0769 31.5423 14.8236 31.083 14.5871C30.6237 14.3338 30.207 13.9538 29.8328 13.4472C29.4586 12.9405 29.2715 12.2734 29.2715 11.4458C29.2715 10.1285 29.7648 9.10671 30.7513 8.38049C31.7549 7.63738 33.0561 7.26582 34.655 7.26582C35.9137 7.26582 37.2404 7.51071 38.6352 8.00049L38.1505 11.0152C37.6572 10.728 37.0959 10.5 36.4665 10.3312C35.8542 10.1454 35.2758 10.0525 34.7315 10.0525C34.1702 10.0525 33.7195 10.1454 33.3793 10.3312C33.0561 10.5169 32.8945 10.7872 32.8945 11.1418C32.8945 11.4796 33.0306 11.7329 33.3027 11.9018C33.5749 12.0707 34.0342 12.2649 34.6805 12.4845C35.1908 12.6703 35.4885 12.78 35.5735 12.8138C36.2879 13.1009 36.8832 13.3796 37.3595 13.6498C37.8358 13.92 38.2525 14.3254 38.6097 14.8658C38.9669 15.3894 39.1455 16.0649 39.1455 16.8925C39.1455 18.2774 38.6437 19.316 37.6402 20.0085C36.6366 20.7009 35.3099 21.0471 33.6599 21.0471Z" fill="white"/>
<path d="M41.8181 2.17383H45.4156V9.52049C45.9429 8.7436 46.5468 8.17782 47.2272 7.82316C47.9075 7.4516 48.69 7.26582 49.5745 7.26582C50.9863 7.26582 52.0919 7.68805 52.8913 8.53249C53.6908 9.36004 54.0905 10.5169 54.0905 12.0032V20.6671H50.493V12.5605C50.493 11.8849 50.3229 11.3614 49.9827 10.9898C49.6425 10.6014 49.1833 10.4072 48.6049 10.4072C47.9756 10.4072 47.3717 10.6267 46.7934 11.0658C46.2321 11.488 45.7728 12.0538 45.4156 12.7632V20.6671H41.8181V2.17383Z" fill="white"/>
<path d="M61.2174 21.0471C59.8566 21.0471 58.7765 20.4729 57.977 19.3245C57.1776 18.176 56.7779 16.6138 56.7779 14.6378C56.7779 12.2396 57.3902 10.4156 58.6149 9.16582C59.8396 7.89916 61.6001 7.26582 63.8964 7.26582C65.1891 7.26582 66.7029 7.46849 68.4379 7.87382V20.6671H65.019L65.0955 18.5898H64.9935C64.5512 19.3836 64.0069 19.9916 63.3606 20.4138C62.7312 20.836 62.0168 21.0471 61.2174 21.0471ZM61.9828 17.9311C62.5101 17.9311 63.0289 17.6525 63.5392 17.0951C64.0494 16.5378 64.5257 15.7947 64.968 14.8658V10.6098C64.4237 10.4578 63.8793 10.3818 63.335 10.3818C62.3145 10.3818 61.5405 10.728 61.0132 11.4205C60.503 12.1129 60.2478 13.1347 60.2478 14.4858C60.2478 15.5498 60.4009 16.3943 60.7071 17.0191C61.0132 17.6271 61.4385 17.9311 61.9828 17.9311Z" fill="white"/>
<path d="M71.9437 7.62049H75.5412V9.74849H75.7454C76.2386 8.88716 76.7234 8.25382 77.1997 7.84849C77.6929 7.44316 78.3053 7.24049 79.0367 7.24049C79.3429 7.24049 79.598 7.27427 79.8021 7.34182L79.4194 11.1925C78.9772 11.0743 78.62 11.0152 78.3478 11.0152C77.9566 11.0152 77.6079 11.0912 77.3017 11.2432C77.0126 11.3952 76.7489 11.5978 76.5108 11.8512C76.2897 12.1045 75.9665 12.4929 75.5412 13.0165V20.6671H71.9437V7.62049Z" fill="white"/>
<path d="M82.0579 2.17383H85.6555V9.52049C86.1828 8.7436 86.7866 8.17782 87.467 7.82316C88.1474 7.4516 88.9298 7.26582 89.8143 7.26582C91.2261 7.26582 92.3317 7.68805 93.1311 8.53249C93.9306 9.36004 94.3303 10.5169 94.3303 12.0032V20.6671H90.7328V12.5605C90.7328 11.8849 90.5627 11.3614 90.2225 10.9898C89.8823 10.6014 89.4231 10.4072 88.8447 10.4072C88.2154 10.4072 87.6115 10.6267 87.0332 11.0658C86.4719 11.488 86.0127 12.0538 85.6555 12.7632V20.6671H82.0579V2.17383Z" fill="white"/>
</g>
</g>
</svg>
