<svg xmlns="http://www.w3.org/2000/svg" width="153" height="48" viewBox="0 0 153 48" fill="none">
    <path d="M9.5721 27.1702C8.39952 24.724 7.76383 22.334 7.47068 20.3082C8.06027 18.4346 9.81579 17.0774 11.8876 17.0774H14.1439C13.7388 17.7759 13.462 18.5538 13.3434 19.3847H11.8876C10.6097 19.3847 9.5721 20.4174 9.5721 21.6919V27.1702Z" fill="#62AD5A"/>
    <path d="M23.8901 0C19.8914 0 15.9092 1.22809 8.42908 3.53863L7.4673 3.83655V16.9119C7.4673 17.1172 7.46731 17.3257 7.47719 17.5409C8.07996 16.7961 8.94621 16.2433 9.60166 15.9321V5.43207C16.8315 3.2043 20.369 2.15826 23.8901 2.15826C27.4111 2.15826 30.9519 3.2043 38.1785 5.43207V15.9321C38.8339 16.2433 39.7002 16.7961 40.303 17.5409C40.3095 17.3257 40.3128 17.1172 40.3128 16.9119V3.83655L39.351 3.53863C31.8709 1.23141 27.8887 0 23.8901 0Z" fill="#62AD5A"/>
    <path fill-rule="evenodd" clip-rule="evenodd" d="M26.0772 9.23215C26.0772 10.3775 25.1517 11.3077 24.0087 11.3077C22.8657 11.3077 21.9402 10.3775 21.9402 9.23215C21.9402 8.08681 22.8657 7.15665 24.0087 7.15665C25.1517 7.15665 26.0772 8.08681 26.0772 9.23215ZM28.6035 9.23215C28.6035 11.781 26.5449 13.8466 24.0087 13.8466C21.4725 13.8466 19.4139 11.781 19.4139 9.23215C19.4139 6.68329 21.4725 4.61771 24.0087 4.61771C26.5449 4.61771 28.6035 6.68329 28.6035 9.23215Z" fill="#62AD5A"/>
    <path fill-rule="evenodd" clip-rule="evenodd" d="M16.1991 11.7678C16.1991 12.5325 15.5831 13.1515 14.819 13.1515C14.0548 13.1515 13.4389 12.5325 13.4389 11.7678C13.4389 11.0031 14.0548 10.3842 14.819 10.3842C15.5831 10.3842 16.1991 11.0031 16.1991 11.7678ZM18.037 11.7678C18.037 13.552 16.5976 14.9986 14.819 14.9986C13.0404 14.9986 11.601 13.552 11.601 11.7678C11.601 9.98363 13.0404 8.53704 14.819 8.53704C16.5976 8.53704 18.037 9.98363 18.037 11.7678Z" fill="#62AD5A"/>
    <path fill-rule="evenodd" clip-rule="evenodd" d="M33.2016 13.1548C33.9624 13.1548 34.5816 12.5357 34.5816 11.7711C34.5816 11.0064 33.9657 10.3874 33.2016 10.3874C32.4374 10.3874 31.8215 11.0064 31.8215 11.7711C31.8215 12.5357 32.4374 13.1548 33.2016 13.1548ZM33.2016 15.0019C34.9769 15.0019 36.4195 13.5553 36.4195 11.7711C36.4195 9.98691 34.9802 8.54033 33.2016 8.54033C31.4229 8.54033 29.9835 9.98691 29.9835 11.7711C29.9835 13.5553 31.4229 15.0019 33.2016 15.0019Z" fill="#62AD5A"/>
    <path d="M0.510876 21.5165C4.08462 29.5106 6.74928 33.9993 15.7742 38.905V38.8951C5.74138 32.652 -0.36199 22.4632 6.21567 13.1515C5.58327 27.4583 11.0872 35.9954 23.8934 41.6492C36.6962 35.9954 42.2002 27.4583 41.5711 13.1515C48.1521 22.4632 42.0454 32.6487 32.0092 38.8951V38.905C41.0342 33.9993 43.6988 29.5106 47.2759 21.5165C50.4247 32.374 37.9578 38.5839 28.8374 41.4572C35.8201 40.7687 41.1561 37.7928 46.4064 32.0562C46.0572 41.2519 34.6443 42.7018 26.9928 42.5132C32.0751 43.5261 36.9268 42.7449 42.4439 40.2722C39.3214 46.8164 31.4098 45.585 25.1845 43.2348C28.5672 45.0322 32.3617 45.83 36.9565 45.8499C33.5013 48.7662 29.5652 47.9386 26.0113 45.7605C26.8545 46.5318 27.8262 47.2501 28.9361 47.9386C27.1278 48.22 25.649 47.5049 24.562 46.3927C24.3941 47.1342 24.1602 47.7301 23.8868 47.8095C23.6134 47.7301 23.3795 47.1342 23.2116 46.3927C22.1246 47.5049 20.6458 48.2167 18.8375 47.9386C19.9475 47.2501 20.9191 46.5318 21.7624 45.7605C18.2084 47.9386 14.2723 48.7662 10.8171 45.8499C15.4119 45.83 19.2064 45.0355 22.5891 43.2348C16.3638 45.585 8.45218 46.8164 5.32967 40.2722C10.8467 42.7449 15.6985 43.5261 20.7807 42.5132C13.1293 42.7018 1.71639 41.2519 1.36725 32.0562C6.61753 37.7961 11.9535 40.7687 18.9362 41.4572C9.81576 38.5839 -2.65116 32.374 0.497689 21.5165H0.510876Z" fill="#62AD5A"/>
    <path d="M23.8899 39.2294L25.9518 43.1454L23.8899 47.0614L21.8313 43.1454L23.8899 39.2294Z" fill="#62AD5A"/>
    <path d="M32.7174 20.3082V34.6679C31.9434 35.3697 31.0969 36.0483 30.1713 36.6905V20.3082C30.1713 19.1596 29.2392 18.2294 28.0897 18.2294H19.7564C18.6069 18.2294 17.6748 19.1596 17.6748 20.3082V36.6177C16.7492 35.9722 15.9027 35.2903 15.1286 34.5819V20.3082C15.1286 17.7593 17.2004 15.6905 19.7564 15.6905H28.0897C30.6456 15.6905 32.7174 17.756 32.7174 20.3082Z" fill="#62AD5A"/>
    <path d="M38.2114 27.1702C39.3839 24.724 40.0197 22.334 40.3128 20.3082C39.7233 18.4346 37.9677 17.0774 35.8959 17.0774H33.6397C34.0448 17.7759 34.3215 18.5538 34.44 19.3847H35.8959C37.1738 19.3847 38.2114 20.4174 38.2114 21.6919V27.1702Z" fill="#62AD5A"/>
    <path d="M57.4465 14.085H56.11V6.165H57.4465V14.085Z" fill="white"/>
    <path d="M60.6778 14.25C59.4622 14.25 58.6428 13.568 58.3238 12.501L59.6328 12.1875C59.7153 12.6385 60.1607 13.007 60.6283 13.007C60.9363 13.007 61.3323 12.853 61.5027 12.4845C61.6072 12.248 61.6073 11.929 61.6073 11.4945V6.165H62.9383V11.4945C62.9383 13.0565 62.5038 14.25 60.6778 14.25Z" fill="white"/>
    <path d="M67.6298 14.085H66.2933V7.408H63.9338V6.165H69.9783V7.408H67.6298V14.085Z" fill="white"/>
    <path d="M72.3029 14.085H70.9664V6.165H72.3029V14.085Z" fill="white"/>
    <path d="M75.2867 14.085H73.9502V6.165H75.2812L77.8387 11.4945L80.3962 6.165H81.7272V14.085H80.3962V8.827L78.3997 12.996H77.2777L75.2867 8.827V14.085Z" fill="white"/>
    <path d="M86.6132 14.25C84.2427 14.25 82.8237 12.5835 82.8237 10.125C82.8237 7.6665 84.2427 6 86.6132 6C88.9892 6 90.4082 7.6665 90.4082 10.125C90.4082 12.5835 88.9892 14.25 86.6132 14.25ZM86.6132 13.0015C88.2082 13.0015 89.0057 11.8575 89.0057 10.125C89.0057 8.3925 88.2082 7.2485 86.6132 7.2485C85.0182 7.2485 84.2317 8.3925 84.2262 10.125C84.2207 11.8575 85.0182 13.0015 86.6132 13.0015Z" fill="white"/>
    <path d="M92.9494 14.085H91.6129V6.165H92.9494V14.085Z" fill="white"/>
    <path d="M97.4178 14.085H96.0868V10.84L93.3862 6.165H94.9318L96.7523 9.322L98.5672 6.165H100.113L97.4178 10.84V14.085Z" fill="white"/>
    <path d="M103.974 14.085H102.643V6.165H103.974V9.498H107.719V6.165H109.05V14.085H107.719V10.741H103.974V14.085Z" fill="white"/>
    <path d="M112.038 14.085H110.702V6.165H112.038V14.085Z" fill="white"/>
    <path d="M115.022 14.085H113.686V6.165H115.017L117.574 11.4945L120.132 6.165H121.463V14.085H120.132V8.827L118.135 12.996H117.013L115.022 8.827V14.085Z" fill="white"/>
    <path d="M126.349 14.25C123.978 14.25 122.559 12.5835 122.559 10.125C122.559 7.6665 123.978 6 126.349 6C128.725 6 130.144 7.6665 130.144 10.125C130.144 12.5835 128.725 14.25 126.349 14.25ZM126.349 13.0015C127.944 13.0015 128.741 11.8575 128.741 10.125C128.741 8.3925 127.944 7.2485 126.349 7.2485C124.754 7.2485 123.967 8.3925 123.962 10.125C123.956 11.8575 124.754 13.0015 126.349 13.0015Z" fill="white"/>
    <path d="M134.167 14.085H132.836V10.84L130.135 6.165H131.681L133.501 9.322L135.316 6.165H136.862L134.167 10.84V14.085Z" fill="white"/>
    <path d="M140.662 6.165L143.28 14.085H141.883L141.322 12.369H138.231L137.67 14.085H136.273L138.897 6.165H140.662ZM138.633 11.1315H140.921L139.777 7.617L138.633 11.1315Z" fill="white"/>
    <path d="M57.3365 28.085H56V20.165H57.331L59.8885 25.4945L62.446 20.165H63.777V28.085H62.446V22.827L60.4495 26.996H59.3275L57.3365 22.827V28.085Z" fill="white"/>
    <path d="M66.76 28.085H65.4235V20.165H66.76V28.085Z" fill="white"/>
    <path d="M73.3462 28.085H68.5172V20.165H69.8482V26.842H73.3462V28.085Z" fill="white"/>
    <path d="M79.2222 28.085H74.3932V20.165H75.7242V26.842H79.2222V28.085Z" fill="white"/>
    <path d="M81.6057 28.085H80.2692V20.165H81.6057V28.085Z" fill="white"/>
    <path d="M86.074 28.085H84.743V24.84L82.0425 20.165H83.588L85.4085 23.322L87.2235 20.165H88.769L86.074 24.84V28.085Z" fill="white"/>
    <path d="M95.1048 20.165L97.7228 28.085H96.3258L95.7648 26.369H92.6738L92.1128 28.085H90.7158L93.3393 20.165H95.1048ZM93.0753 25.1315H95.3633L94.2193 21.617L93.0753 25.1315Z" fill="white"/>
    <path d="M104.035 28.085V27.04C103.678 27.7935 102.765 28.25 101.659 28.25C99.4759 28.25 98.0239 26.721 98.0239 24.125C98.0239 21.65 99.5364 20 101.758 20C103.562 20 104.734 20.8635 105.24 22.585L103.887 22.7995C103.634 21.826 102.858 21.254 101.797 21.254C100.312 21.254 99.4264 22.31 99.4264 24.136C99.4264 25.9455 100.246 27.0015 101.786 27.0015C103.007 27.0015 103.865 26.303 103.931 24.972H101.318V23.729H105.372V28.085H104.035Z" fill="white"/>
    <path d="M111.711 28.085H106.585V20.165H111.711V21.408H107.916V23.3605H111.051V24.6035H107.916V26.842H111.711V28.085Z" fill="white"/>
    <path d="M114.361 28.085H113.03V20.165H114.361L118.052 25.797V20.165H119.388V28.085H118.052L114.361 22.453V28.085Z" fill="white"/>
    <path d="M123.962 28.085H122.625V21.408H120.266V20.165H126.31V21.408H123.962V28.085Z" fill="white"/>
    <path d="M132.127 28.085H127.298V20.165H128.629V26.842H132.127V28.085Z" fill="white"/>
    <path d="M134.511 28.085H133.174V20.165H134.511V28.085Z" fill="white"/>
    <path d="M141.73 28.085V27.04C141.372 27.7935 140.459 28.25 139.354 28.25C137.17 28.25 135.718 26.721 135.718 24.125C135.718 21.65 137.231 20 139.453 20C141.257 20 142.428 20.8635 142.934 22.585L141.581 22.7995C141.328 21.826 140.553 21.254 139.491 21.254C138.006 21.254 137.121 22.31 137.121 24.136C137.121 25.9455 137.94 27.0015 139.48 27.0015C140.701 27.0015 141.559 26.303 141.625 24.972H139.013V23.729H143.066V28.085H141.73Z" fill="white"/>
    <path d="M145.726 28.085H144.389V20.165H145.726V28.085Z" fill="white"/>
    <path d="M57.331 42.085H56V34.165H57.331L61.0215 39.797V34.165H62.358V42.085H61.0215L57.331 36.453V42.085Z" fill="white"/>
    <path d="M65.2265 42.085H63.8955V34.165H65.2265L68.917 39.797V34.165H70.2535V42.085H68.917L65.2265 36.453V42.085Z" fill="white"/>
    <path d="M74.827 42.085H73.4905V35.408H71.131V34.165H77.1755V35.408H74.827V42.085Z" fill="white"/>
    <path d="M81.2594 42.085H79.9229V34.165H83.0524C84.9224 34.165 85.8574 35.1275 85.8574 36.7445C85.8574 38.356 84.9169 39.3185 83.0524 39.3185H81.2594V42.085ZM81.2594 35.408V38.081H83.0414C83.9984 38.081 84.5209 37.6025 84.5209 36.7445C84.5209 35.881 83.9984 35.408 83.0414 35.408H81.2594Z" fill="white"/>
    <path d="M91.898 42.085H87.069V34.165H88.4V40.842H91.898V42.085Z" fill="white"/>
    <path d="M96.641 34.165L99.259 42.085H97.862L97.301 40.369H94.21L93.649 42.085H92.252L94.8755 34.165H96.641ZM94.6115 39.1315H96.8995L95.7555 35.617L94.6115 39.1315Z" fill="white"/>
    <path d="M102.596 42.085H101.259V35.408H98.8996V34.165H104.944V35.408H102.596V42.085Z" fill="white"/>
    <path d="M107.153 42.085H105.822V34.165H110.679V35.408H107.153V37.718H110.013V38.961H107.153V42.085Z" fill="white"/>
    <path d="M115.016 42.25C112.645 42.25 111.226 40.5835 111.226 38.125C111.226 35.6665 112.645 34 115.016 34C117.392 34 118.811 35.6665 118.811 38.125C118.811 40.5835 117.392 42.25 115.016 42.25ZM115.016 41.0015C116.611 41.0015 117.408 39.8575 117.408 38.125C117.408 36.3925 116.611 35.2485 115.016 35.2485C113.421 35.2485 112.634 36.3925 112.629 38.125C112.623 39.8575 113.421 41.0015 115.016 41.0015Z" fill="white"/>
    <path d="M124.432 42.085L122.644 39.3185H121.242V42.085H119.905V34.165H123.035C124.905 34.165 125.84 35.1275 125.84 36.7445C125.84 38.015 125.257 38.884 124.096 39.192L125.966 42.085H124.432ZM121.242 35.408V38.081H123.024C123.981 38.081 124.503 37.6025 124.503 36.7445C124.503 35.881 123.981 35.408 123.024 35.408H121.242Z" fill="white"/>
    <path d="M128.514 42.085H127.178V34.165H128.509L131.066 39.4945L133.624 34.165H134.955V42.085H133.624V36.827L131.627 40.996H130.505L128.514 36.827V42.085Z" fill="white"/>
    <path d="M140.297 34.165L142.915 42.085H141.518L140.957 40.369H137.866L137.305 42.085H135.908L138.532 34.165H140.297ZM138.268 39.1315H140.556L139.412 35.617L138.268 39.1315Z" fill="white"/>
    <path d="M146.588 42.25C144.828 42.25 143.552 41.2765 143.31 39.742L144.685 39.533C144.921 40.501 145.603 41.007 146.67 41.007C147.622 41.007 148.309 40.523 148.309 39.852C148.309 39.423 148.023 39.1315 147.429 38.9555L145.383 38.3505C144.212 38.004 143.618 37.3165 143.618 36.31C143.618 34.9295 144.8 34.011 146.478 34.011C148.133 34.011 149.283 34.8525 149.635 36.3265L148.21 36.574C148.04 35.7325 147.396 35.2485 146.456 35.2485C145.57 35.2485 145.009 35.672 145.009 36.255C145.009 36.7005 145.356 36.9865 146.17 37.212L147.572 37.6025C149.002 37.993 149.695 38.7025 149.695 39.7805C149.695 41.249 148.441 42.25 146.588 42.25Z" fill="white"/>
    <path d="M152.332 42.085H150.996V34.165H152.332V42.085Z" fill="white"/>
</svg>